# xmcd CD database file
#
# Track frame offsets:
#	150
#	13116
#	32155
#	45672
#	62400
#	79933
#	91924
#	107250
#	120207
#	132826
#	147759
#	165894
#
# Disc length: 2364 seconds
#
# Revision: 0
# Processed by: cddbd v1.5.2PL0 Copyright (c) Steve Scherf et al.
# Submitted via: ACXtractor (MTCDDB.DLL V2003.07.15)
#
DISCID=85093a0c
DTITLE=Brian Letton - A Little Bit of Irish
DYEAR=2013
DGENRE=Country
TTITLE0=It Takes An Irish Heart
TTITLE1=Galway Bay
TTITLE2=If We Only Had Old Ireland Over Here
TTITLE3=Irish Medley Peggy O'Neil 
TTITLE4=Forty Shades of Green
TTITLE5=MacNamara's Band
TTITLE6=A Daisy a Day
TTITLE7=If Your Irish
TTITLE8=An Irish Love Song
TTITLE9=The Unicorn
TTITLE10=I'll Take You Home Again Kathleen
TTITLE11=There's A Little bit Of Irish In Us All
EXTD=ID3G:   2 YEAR: 2013
EXTT0=
EXTT1=
EXTT2=
EXTT3=
EXTT4=
EXTT5=
EXTT6=
EXTT7=
EXTT8=
EXTT9=
EXTT10=
EXTT11=
PLAYORDER=
